# xmcd
#
# Track frame offsets: 
#        150
#        16194
#        33936
#        72761
#        87261
#        116745
#        142964
#        173637
#        198673
#        223067
#        252834
#        282470
#
# Disc length: 4162 seconds
#
# Revision: 0
# Processed by: cddbd v1.5.2PL0 Copyright (c) Steve Scherf et al.
# Submitted via: ExactAudioCopy v0.99pb3
#
DISCID=aa10400c
DTITLE=Bob Dylan - Live at the Memorial Auditorium, Sacramento CA 2001
DTITLE=10-01 [disc 1]
DYEAR=2001
DGENRE=Folk/Rock
TTITLE0=Wait for the Light to Shine
TTITLE1=Song to Woody
TTITLE2=Desolation Row
TTITLE3=Searching for a Soldier's Grave
TTITLE4=Things Have Changed
TTITLE5=Summer Days
TTITLE6=I Want You
TTITLE7=Cry a While
TTITLE8=Masters of War
TTITLE9=Boots of Spanish Leather
TTITLE10=Don't Think Twice, It's Alright
TTITLE11=Highway 61 Revisited
EXTD=
EXTT0=
EXTT1=
EXTT2=
EXTT3=
EXTT4=
EXTT5=
EXTT6=
EXTT7=
EXTT8=
EXTT9=
EXTT10=
EXTT11=
PLAYORDER=
